<svg width="134" height="183" viewBox="0 0 134 183" fill="none" xmlns="http://www.w3.org/2000/svg">
<g opacity="0.8" clip-path="url(#clip0_2234_9590)">
<path d="M39.8045 176.801C41.2766 176.795 42.3851 177.898 42.3909 179.375C42.3967 180.852 41.2969 181.965 39.8248 181.97C38.3526 181.976 37.2442 180.873 37.2384 179.396C37.2326 177.919 38.455 176.806 39.8045 176.801Z" fill="#FFCF2D"/>
<path d="M39.718 154.769C41.1902 154.763 42.2986 155.866 42.3044 157.343C42.3102 158.82 41.2105 159.932 39.7383 159.938C38.2662 159.944 37.1578 158.84 37.152 157.363C37.1466 156.01 38.3686 154.774 39.718 154.769Z" fill="#FFCF2D"/>
<path d="M39.6316 132.859C41.1037 132.854 42.2122 133.957 42.218 135.434C42.2238 136.911 41.1241 138.023 39.6519 138.029C38.1798 138.035 37.0713 136.931 37.0655 135.454C37.0597 133.977 38.2821 132.865 39.6316 132.859Z" fill="#FFCF2D"/>
<path d="M39.5452 110.827C41.0173 110.821 42.1258 111.925 42.1316 113.402C42.1374 114.879 41.0376 115.991 39.5655 115.997C38.0934 116.002 36.9849 114.899 36.9791 113.422C36.9733 111.945 38.1957 110.832 39.5452 110.827Z" fill="#FFCF2D"/>
<path d="M39.4588 88.7949C40.9309 88.7891 42.0394 89.8925 42.0452 91.3696C42.051 92.8466 40.9512 93.9587 39.4791 93.9645C38.0069 93.9703 36.8985 92.8668 36.8927 91.3898C36.8874 90.0359 38.1093 88.8002 39.4588 88.7949Z" fill="#FFCF2D"/>
<path d="M39.3718 66.7627C40.844 66.7569 41.9524 67.8603 41.9582 69.3373C41.964 70.8144 40.8643 71.9265 39.3922 71.9323C37.92 71.938 36.8116 70.8346 36.8058 69.3576C36.8 67.8806 38.0224 66.768 39.3718 66.7627Z" fill="#FFCF2D"/>
<path d="M39.2859 44.8535C40.758 44.8477 41.8665 45.9511 41.8723 47.4281C41.8781 48.9052 40.7784 50.0173 39.3062 50.0231C37.8341 50.0289 36.7256 48.9254 36.7198 47.4484C36.714 45.9714 37.9364 44.8588 39.2859 44.8535Z" fill="#FFCF2D"/>
<path d="M39.1995 22.8213C40.6716 22.8155 41.7801 23.9189 41.7859 25.3959C41.7917 26.873 40.6919 27.9851 39.2198 27.9909C37.7477 27.9966 36.6392 26.8932 36.6334 25.4162C36.6276 23.9392 37.85 22.8266 39.1995 22.8213Z" fill="#FFCF2D"/>
<path d="M39.1126 0.788073C40.5847 0.782288 41.6932 1.88571 41.699 3.36273C41.7048 4.83975 40.605 5.95187 39.1329 5.95765C37.6607 5.96343 36.5523 4.86 36.5465 3.38298C36.5412 2.02904 37.7631 0.793376 39.1126 0.788073Z" fill="#FFCF2D"/>
<path d="M58.0833 176.729C59.5554 176.724 60.6639 177.827 60.6697 179.304C60.6755 180.781 59.5757 181.893 58.1036 181.899C56.6315 181.905 55.523 180.801 55.5172 179.324C55.5114 177.847 56.6111 176.735 58.0833 176.729Z" fill="#FFCF2D"/>
<path d="M57.9968 154.697C59.469 154.691 60.5774 155.795 60.5832 157.272C60.589 158.749 59.4893 159.861 58.0172 159.867C56.545 159.873 55.4366 158.769 55.4308 157.292C55.4254 155.938 56.5247 154.703 57.9968 154.697Z" fill="#FFCF2D"/>
<path d="M57.9104 132.788C59.3826 132.782 60.491 133.886 60.4968 135.363C60.5026 136.84 59.4029 137.952 57.9307 137.958C56.4586 137.963 55.3501 136.86 55.3443 135.383C55.3385 133.906 56.4383 132.794 57.9104 132.788Z" fill="#FFCF2D"/>
<path d="M57.824 110.756C59.2961 110.75 60.4046 111.853 60.4104 113.33C60.4162 114.808 59.3164 115.92 57.8443 115.925C56.3722 115.931 55.2637 114.828 55.2579 113.351C55.2521 111.874 56.3519 110.762 57.824 110.756Z" fill="#FFCF2D"/>
<path d="M57.7376 88.7226C59.2097 88.7168 60.3182 89.8203 60.324 91.2973C60.3298 92.7743 59.23 93.8864 57.7579 93.8922C56.2857 93.898 55.1773 92.7946 55.1715 91.3175C55.1662 89.9636 56.2654 88.7284 57.7376 88.7226Z" fill="#FFCF2D"/>
<path d="M57.6507 66.6904C59.1228 66.6846 60.2312 67.788 60.2371 69.2651C60.2429 70.7421 59.1431 71.8542 57.671 71.86C56.1988 71.8658 55.0904 70.7623 55.0846 69.2853C55.0788 67.8083 56.1785 66.6962 57.6507 66.6904Z" fill="#FFCF2D"/>
<path d="M57.5647 44.7812C59.0369 44.7754 60.1453 45.8789 60.1511 47.3559C60.1569 48.8329 59.0572 49.945 57.585 49.9508C56.1129 49.9566 55.0044 48.8532 54.9986 47.3761C54.9928 45.8991 56.0926 44.787 57.5647 44.7812Z" fill="#FFCF2D"/>
<path d="M57.4783 22.749C58.9504 22.7432 60.0589 23.8466 60.0647 25.3237C60.0705 26.8007 58.9707 27.9128 57.4986 27.9186C56.0265 27.9244 54.918 26.8209 54.9122 25.3439C54.9064 23.8669 56.0062 22.7548 57.4783 22.749Z" fill="#FFCF2D"/>
<path d="M57.3914 0.716769C58.8635 0.710984 59.972 1.8144 59.9778 3.29143C59.9836 4.76846 58.8838 5.88058 57.4117 5.88636C55.9396 5.89215 54.8311 4.78871 54.8253 3.31168C54.82 1.95774 55.9192 0.722554 57.3914 0.716769Z" fill="#FFCF2D"/>
<path d="M3.36891 176.944C4.84105 176.939 5.94951 178.042 5.95531 179.519C5.96112 180.996 4.86137 182.108 3.38923 182.114C1.91709 182.12 0.808635 181.016 0.802831 179.539C0.797027 178.062 1.89678 176.95 3.36891 176.944Z" fill="#FFCF2D"/>
<path d="M3.28249 154.912C4.75463 154.906 5.86308 156.01 5.86889 157.487C5.87469 158.964 4.77494 160.076 3.3028 160.082C1.83067 160.087 0.722209 158.984 0.716405 157.507C0.711085 156.153 1.81035 154.918 3.28249 154.912Z" fill="#FFCF2D"/>
<path d="M3.19606 133.003C4.6682 132.997 5.77666 134.101 5.78246 135.578C5.78826 137.055 4.68851 138.167 3.21638 138.172C1.74424 138.178 0.6353 136.952 0.62998 135.598C0.624176 134.121 1.72393 133.009 3.19606 133.003Z" fill="#FFCF2D"/>
<path d="M3.10964 110.971C4.58177 110.965 5.69023 112.068 5.69603 113.545C5.70184 115.022 4.60209 116.134 3.12995 116.14C1.65781 116.146 0.548874 114.92 0.543554 113.566C0.538233 112.212 1.6375 110.976 3.10964 110.971Z" fill="#FFCF2D"/>
<path d="M3.02321 88.9384C4.49535 88.9327 5.60381 90.0361 5.60961 91.5131C5.61541 92.9901 4.51566 94.1023 3.04353 94.108C1.57139 94.1138 0.462932 93.0104 0.457128 91.5334C0.451808 90.1794 1.55107 88.9442 3.02321 88.9384Z" fill="#FFCF2D"/>
<path d="M2.9363 66.9052C4.40843 66.8995 5.51689 68.0029 5.5227 69.4799C5.5285 70.9569 4.42875 72.0691 2.95661 72.0748C1.48447 72.0806 0.376018 70.9772 0.370214 69.5002C0.36441 68.0231 1.46416 66.911 2.9363 66.9052Z" fill="#FFCF2D"/>
<path d="M2.85036 44.997C4.3225 44.9913 5.43095 46.0947 5.43676 47.5717C5.44256 49.0487 4.34281 50.1608 2.87067 50.1666C1.39854 50.1724 0.290081 49.069 0.284276 47.592C0.278472 46.1149 1.37822 45.0028 2.85036 44.997Z" fill="#FFCF2D"/>
<path d="M2.76393 22.9638C4.23607 22.958 5.34453 24.0615 5.35033 25.5385C5.35614 27.0155 4.25639 28.1276 2.78425 28.1334C1.31211 28.1392 0.203655 27.0358 0.197851 25.5588C0.192047 24.0817 1.2918 22.9696 2.76393 22.9638Z" fill="#FFCF2D"/>
<path d="M2.67702 0.931628C4.14916 0.925843 5.25761 2.02926 5.26342 3.50628C5.26922 4.98331 4.16947 6.09542 2.69733 6.1012C1.2252 6.10699 0.116741 5.00355 0.110937 3.52653C0.105616 2.17259 1.20488 0.937413 2.67702 0.931628Z" fill="#FFCF2D"/>
<path d="M21.6482 176.872C23.1204 176.866 24.2288 177.97 24.2346 179.447C24.2404 180.924 23.018 182.036 21.6685 182.042C20.1964 182.047 19.0879 180.944 19.0821 179.467C19.0763 177.99 20.1761 176.878 21.6482 176.872Z" fill="#FFCF2D"/>
<path d="M21.5613 154.84C23.0334 154.834 24.1419 155.937 24.1477 157.414C24.1535 158.892 23.0537 160.004 21.5816 160.009C20.1095 160.015 19.001 158.912 18.9952 157.435C18.9899 156.081 20.0892 154.846 21.5613 154.84Z" fill="#FFCF2D"/>
<path d="M21.4754 132.931C22.9475 132.925 24.056 134.028 24.0618 135.505C24.0676 136.982 22.9678 138.094 21.4957 138.1C20.0235 138.106 18.9151 137.003 18.9093 135.526C18.9035 134.049 20.0032 132.936 21.4754 132.931Z" fill="#FFCF2D"/>
<path d="M21.3889 110.898C22.8611 110.893 23.9695 111.996 23.9753 113.473C23.9811 114.95 22.8814 116.062 21.4092 116.068C19.9371 116.074 18.8287 114.97 18.8229 113.493C18.817 112.016 19.9168 110.904 21.3889 110.898Z" fill="#FFCF2D"/>
<path d="M21.302 88.8662C22.7742 88.8604 23.8826 89.9638 23.8884 91.4409C23.8942 92.9179 22.7945 94.03 21.3223 94.0358C19.8502 94.0416 18.7417 92.9381 18.7359 91.4611C18.7306 90.1072 19.8299 88.872 21.302 88.8662Z" fill="#FFCF2D"/>
<path d="M21.2156 66.8339C22.6877 66.8282 23.7962 67.9316 23.802 69.4086C23.8078 70.8857 22.708 71.9978 21.2359 72.0035C19.7638 72.0093 18.6553 70.9059 18.6495 69.4289C18.6437 67.9518 19.7435 66.8397 21.2156 66.8339Z" fill="#FFCF2D"/>
<path d="M21.1297 44.9248C22.6018 44.919 23.7103 46.0224 23.7161 47.4994C23.7219 48.9765 22.6221 50.0886 21.15 50.0944C19.6778 50.1002 18.5694 48.9967 18.5636 47.5197C18.5578 46.0427 19.6575 44.9306 21.1297 44.9248Z" fill="#FFCF2D"/>
<path d="M21.0432 22.8925C22.5154 22.8868 23.6238 23.9902 23.6296 25.4672C23.6354 26.9442 22.5357 28.0564 21.0635 28.0621C19.5914 28.0679 18.483 26.9645 18.4771 25.4875C18.4713 24.0104 19.5711 22.8983 21.0432 22.8925Z" fill="#FFCF2D"/>
<path d="M20.9563 0.860324C22.4285 0.854539 23.5369 1.95796 23.5427 3.43499C23.5485 4.91201 22.4488 6.02413 20.9766 6.02992C19.5045 6.0357 18.396 4.93226 18.3902 3.45523C18.3849 2.10129 19.4842 0.866109 20.9563 0.860324Z" fill="#FFCF2D"/>
<path d="M76.24 176.658C77.7121 176.652 78.8206 177.756 78.8264 179.233C78.8322 180.71 77.7325 181.822 76.2603 181.828C74.7882 181.834 73.6797 180.73 73.6739 179.253C73.6681 177.776 74.8905 176.663 76.24 176.658Z" fill="#FFCF2D"/>
<path d="M76.1531 154.626C77.6252 154.62 78.7337 155.724 78.7395 157.201C78.7453 158.678 77.6455 159.79 76.1734 159.796C74.7013 159.801 73.5928 158.698 73.587 157.221C73.5817 155.867 74.8036 154.631 76.1531 154.626Z" fill="#FFCF2D"/>
<path d="M76.0672 132.717C77.5393 132.711 78.6477 133.814 78.6536 135.291C78.6594 136.768 77.5596 137.881 76.0875 137.886C74.6153 137.892 73.5069 136.789 73.5011 135.312C73.4953 133.835 74.7177 132.722 76.0672 132.717Z" fill="#FFCF2D"/>
<path d="M75.9807 110.685C77.4529 110.679 78.5613 111.782 78.5671 113.259C78.5729 114.736 77.4732 115.848 76.001 115.854C74.5289 115.86 73.4205 114.756 73.4146 113.279C73.4088 111.802 74.6313 110.69 75.9807 110.685Z" fill="#FFCF2D"/>
<path d="M75.8938 88.6513C77.366 88.6455 78.4744 89.749 78.4802 91.226C78.486 92.703 77.3863 93.8151 75.9141 93.8209C74.442 93.8267 73.3335 92.7233 73.3277 91.2463C73.3224 89.8923 74.5444 88.6566 75.8938 88.6513Z" fill="#FFCF2D"/>
<path d="M75.8074 66.6191C77.2795 66.6133 78.388 67.7168 78.3938 69.1938C78.3996 70.6708 77.2998 71.7829 75.8277 71.7887C74.3556 71.7945 73.2471 70.6911 73.2413 69.214C73.2355 67.737 74.4579 66.6244 75.8074 66.6191Z" fill="#FFCF2D"/>
<path d="M75.7215 44.7099C77.1936 44.7041 78.302 45.8076 78.3078 47.2846C78.3137 48.7616 77.2139 49.8737 75.7418 49.8795C74.2696 49.8853 73.1612 48.7819 73.1554 47.3048C73.1496 45.8278 74.372 44.7152 75.7215 44.7099Z" fill="#FFCF2D"/>
<path d="M75.6345 22.6777C77.1067 22.6719 78.2151 23.7753 78.2209 25.2524C78.2267 26.7294 77.127 27.8415 75.6549 27.8473C74.1827 27.8531 73.0743 26.7497 73.0685 25.2726C73.0627 23.7956 74.2851 22.683 75.6345 22.6777Z" fill="#FFCF2D"/>
<path d="M75.5481 0.64548C77.0202 0.639695 78.1287 1.74312 78.1345 3.22014C78.1403 4.69717 77.0406 5.80929 75.5684 5.81507C74.0963 5.82086 72.9878 4.71742 72.982 3.24039C72.9767 1.88645 74.1987 0.650783 75.5481 0.64548Z" fill="#FFCF2D"/>
<path d="M94.5188 176.586C95.9909 176.58 97.0994 177.684 97.1052 179.161C97.111 180.638 96.0113 181.75 94.5391 181.756C93.067 181.761 91.9585 180.658 91.9527 179.181C91.9469 177.704 93.0467 176.592 94.5188 176.586Z" fill="#FFCF2D"/>
<path d="M94.4319 154.554C95.904 154.548 97.0125 155.651 97.0183 157.128C97.0241 158.605 95.9243 159.717 94.4522 159.723C92.9801 159.729 91.8716 158.626 91.8658 157.149C91.8605 155.795 92.9598 154.559 94.4319 154.554Z" fill="#FFCF2D"/>
<path d="M94.346 132.644C95.8181 132.639 96.9265 133.742 96.9324 135.219C96.9382 136.696 95.8384 137.808 94.3663 137.814C92.8941 137.82 91.7857 136.716 91.7799 135.239C91.7741 133.762 92.8738 132.65 94.346 132.644Z" fill="#FFCF2D"/>
<path d="M96.8459 113.187C96.8403 111.759 95.6824 110.607 94.2595 110.612C92.8367 110.618 91.6878 111.78 91.6935 113.207C91.6991 114.635 92.857 115.787 94.2798 115.782C95.7027 115.776 96.8515 114.614 96.8459 113.187Z" fill="#FFCF2D"/>
<path d="M94.1731 88.58C95.6452 88.5743 96.7537 89.6777 96.7595 91.1547C96.7653 92.6317 95.6656 93.7439 94.1934 93.7496C92.7213 93.7554 91.6128 92.652 91.607 91.175C91.6017 89.821 92.701 88.5858 94.1731 88.58Z" fill="#FFCF2D"/>
<path d="M94.0862 66.5478C95.5583 66.542 96.6668 67.6455 96.6726 69.1225C96.6784 70.5995 95.5786 71.7116 94.1065 71.7174C92.6344 71.7232 91.5259 70.6198 91.5201 69.1427C91.5143 67.6657 92.6141 66.5536 94.0862 66.5478Z" fill="#FFCF2D"/>
<path d="M94.0003 44.6386C95.4724 44.6328 96.5808 45.7363 96.5867 47.2133C96.5925 48.6903 95.4927 49.8025 94.0206 49.8082C92.5484 49.814 91.44 48.7106 91.4342 47.2336C91.4284 45.7565 92.5281 44.6444 94.0003 44.6386Z" fill="#FFCF2D"/>
<path d="M96.5002 25.1811C96.4946 23.7535 95.3366 22.6008 93.9138 22.6064C92.491 22.612 91.3421 23.7738 91.3478 25.2013C91.3534 26.6289 92.5113 27.7816 93.9341 27.776C95.357 27.7704 96.5058 26.6086 96.5002 25.1811Z" fill="#FFCF2D"/>
<path d="M93.8269 0.573215C95.2991 0.56743 96.4075 1.67085 96.4133 3.14788C96.4191 4.6249 95.3194 5.73702 93.8472 5.74281C92.3751 5.74859 91.2666 4.64515 91.2608 3.16812C91.2555 1.81418 92.3548 0.578999 93.8269 0.573215Z" fill="#FFCF2D"/>
<path d="M112.798 176.515C114.27 176.509 115.378 177.612 115.384 179.089C115.39 180.566 114.29 181.678 112.818 181.684C111.346 181.69 110.237 180.587 110.232 179.11C110.226 177.633 111.325 176.52 112.798 176.515Z" fill="#FFCF2D"/>
<path d="M112.711 154.481C114.183 154.476 115.292 155.579 115.298 157.056C115.303 158.533 114.204 159.645 112.732 159.651C111.259 159.657 110.151 158.553 110.145 157.076C110.14 155.722 111.239 154.487 112.711 154.481Z" fill="#FFCF2D"/>
<path d="M112.625 132.573C114.097 132.567 115.206 133.671 115.212 135.148C115.217 136.625 114.118 137.737 112.646 137.743C111.173 137.749 110.065 136.645 110.059 135.168C110.053 133.691 111.153 132.579 112.625 132.573Z" fill="#FFCF2D"/>
<path d="M112.539 110.54C114.011 110.534 115.119 111.638 115.125 113.115C115.131 114.592 114.031 115.704 112.559 115.71C111.087 115.715 109.979 114.612 109.973 113.135C109.967 111.658 111.067 110.546 112.539 110.54Z" fill="#FFCF2D"/>
<path d="M112.452 88.5078C113.924 88.502 115.033 89.6054 115.038 91.0825C115.044 92.5595 113.944 93.6716 112.472 93.6774C111 93.6832 109.892 92.5797 109.886 91.1027C109.881 89.7488 110.98 88.5136 112.452 88.5078Z" fill="#FFCF2D"/>
<path d="M112.366 66.4756C113.838 66.4698 114.946 67.5732 114.952 69.0502C114.958 70.5273 113.858 71.6394 112.386 71.6451C110.914 71.6509 109.805 70.5475 109.799 69.0705C109.794 67.5935 110.893 66.4813 112.366 66.4756Z" fill="#FFCF2D"/>
<path d="M112.28 44.5664C113.752 44.5606 114.86 45.664 114.866 47.141C114.872 48.6181 113.772 49.7302 112.3 49.736C110.828 49.7418 109.719 48.6383 109.713 47.1613C109.708 45.6843 110.807 44.5722 112.28 44.5664Z" fill="#FFCF2D"/>
<path d="M112.193 22.5341C113.665 22.5284 114.773 23.6318 114.779 25.1088C114.785 26.5859 113.685 27.698 112.213 27.7037C110.741 27.7095 109.632 26.6061 109.627 25.1291C109.621 23.652 110.721 22.5399 112.193 22.5341Z" fill="#FFCF2D"/>
<path d="M112.106 0.501925C113.578 0.496141 114.687 1.59956 114.693 3.07659C114.698 4.55362 113.599 5.66573 112.127 5.67152C110.654 5.6773 109.546 4.57386 109.54 3.09684C109.535 1.74289 110.634 0.50771 112.106 0.501925Z" fill="#FFCF2D"/>
<path d="M130.954 176.443C132.427 176.438 133.535 177.541 133.541 179.018C133.547 180.495 132.447 181.607 130.975 181.613C129.503 181.619 128.394 180.515 128.388 179.038C128.382 177.561 129.605 176.449 130.954 176.443Z" fill="#FFCF2D"/>
<path d="M130.867 154.41C132.34 154.404 133.448 155.508 133.454 156.985C133.46 158.462 132.36 159.574 130.888 159.58C129.416 159.586 128.307 158.482 128.301 157.005C128.296 155.651 129.518 154.415 130.867 154.41Z" fill="#FFCF2D"/>
<path d="M130.782 132.502C132.254 132.496 133.362 133.6 133.368 135.077C133.374 136.554 132.274 137.666 130.802 137.672C129.33 137.677 128.221 136.574 128.215 135.097C128.21 133.62 129.432 132.507 130.782 132.502Z" fill="#FFCF2D"/>
<path d="M130.695 110.469C132.167 110.463 133.276 111.566 133.281 113.043C133.287 114.52 132.188 115.633 130.715 115.638C129.243 115.644 128.135 114.541 128.129 113.064C128.123 111.587 129.346 110.474 130.695 110.469Z" fill="#FFCF2D"/>
<path d="M130.608 88.4365C132.08 88.4307 133.189 89.5341 133.195 91.0112C133.2 92.4882 132.101 93.6003 130.628 93.6061C129.156 93.6119 128.048 92.5084 128.042 91.0314C128.037 89.6775 129.259 88.4418 130.608 88.4365Z" fill="#FFCF2D"/>
<path d="M130.522 66.4043C131.994 66.3985 133.102 67.5019 133.108 68.9789C133.114 70.456 132.014 71.5681 130.542 71.5739C129.07 71.5796 127.961 70.4762 127.956 68.9992C127.95 67.5222 129.172 66.4096 130.522 66.4043Z" fill="#FFCF2D"/>
<path d="M130.436 44.4951C131.908 44.4893 133.016 45.5927 133.022 47.0697C133.028 48.5468 131.928 49.6589 130.456 49.6647C128.984 49.6705 127.876 48.567 127.87 47.09C127.864 45.613 129.086 44.5004 130.436 44.4951Z" fill="#FFCF2D"/>
<path d="M130.349 22.4628C131.821 22.4571 132.93 23.5605 132.935 25.0375C132.941 26.5146 131.841 27.6267 130.369 27.6325C128.897 27.6382 127.789 26.5348 127.783 25.0578C127.777 23.5808 128.999 22.4682 130.349 22.4628Z" fill="#FFCF2D"/>
<path d="M130.262 0.430636C131.735 0.424851 132.843 1.52827 132.849 3.0053C132.855 4.48233 131.755 5.59444 130.283 5.60023C128.811 5.60601 127.702 4.50257 127.696 3.02555C127.691 1.6716 128.913 0.435939 130.262 0.430636Z" fill="#FFCF2D"/>
</g>
<defs>
<clipPath id="clip0_2234_9590">
<rect width="181.184" height="132.739" fill="white" transform="translate(0.812988 182.124) rotate(-90.2251)"/>
</clipPath>
</defs>
</svg>
